<svg width="40" height="40" viewBox="0 0 40 40" fill="none" xmlns="http://www.w3.org/2000/svg">
<path fill-rule="evenodd" clip-rule="evenodd" d="M20.5308 2.80843C20.5308 2.84647 20.5689 2.88424 20.5689 2.96033L20.6447 3.03614C20.2274 3.49158 21.3657 3.64348 21.3279 2.9981C21.3279 2.58071 22.5423 3.26386 22.694 3.30163C23.3772 3.6432 24.0982 3.87092 24.8192 4.09864C25.0089 4.13669 26.8685 4.74375 26.9065 4.70598C27.1343 4.63017 24.7055 3.90897 24.4396 3.83316C23.9462 3.64348 21.5935 2.54294 23.6428 2.73261C25.1228 2.92229 26.8685 3.33995 28.1209 4.21278C28.8041 4.66821 28.8041 5.38913 27.8173 5.19946C27.0204 5.04756 27.5517 5.16142 27.7034 5.38913C27.8931 5.80652 26.4889 5.46495 26.4889 5.50299C27.0202 5.88262 28.4624 5.73071 28.6141 6.18615C28.7658 6.64158 26.5267 5.99648 27.7792 6.41386C28.9936 6.8693 29.7904 5.6549 30.2839 5.99648C30.4356 6.07229 30.3978 6.33805 30.3597 6.48996C30.17 6.94539 29.6765 7.0973 29.2212 7.17311C28.7277 7.24892 29.9043 7.40083 30.0941 7.36278C30.2839 7.32474 30.6634 6.98316 30.7773 7.09702C30.8154 7.17283 30.8154 7.32474 30.7773 7.40055C30.5875 8.00789 29.0695 7.55245 28.728 7.70408C28.6899 7.74213 28.8797 7.74213 29.1456 7.77989C29.4493 7.81794 30.7395 8.00761 30.9293 8.19728C31.119 8.38695 31.1949 8.69076 30.7776 8.61467C30.1325 8.50081 29.4493 8.23505 30.6259 8.76658C31.2332 9.03234 30.6259 9.18396 30.2464 9.1462C29.6012 9.03234 29.07 8.61495 28.5385 8.27337C27.4758 7.55217 25.0092 6.22391 23.7189 6.18615C23.3394 6.18615 22.9599 6.26196 22.7701 6.33805C22.1631 6.48996 23.1877 6.33805 23.2636 6.33805C24.2124 6.26224 26.3756 7.36278 27.0966 8.00789C27.2483 8.12175 27.8175 8.61523 27.5142 8.84267C27.2105 9.03234 25.237 7.24864 24.7817 6.98316C23.6053 6.33805 22.998 6.56577 21.7458 6.60354C21.6319 6.60354 20.9867 6.48968 20.9867 6.48968C20.9867 6.48968 21.2145 6.60354 21.4043 6.67935C21.7458 6.75516 22.467 6.67935 22.8843 6.71739C24.63 6.83125 25.0475 7.9318 26.3378 8.72881C27.2108 9.26006 28.2354 9.56387 29.2601 9.48777C29.6015 9.44973 30.133 9.33587 30.4745 9.44973C30.8159 9.60163 31.2335 9.71549 31.4611 9.26006C31.6889 8.84267 31.423 8.84267 31.423 8.80462C31.423 8.80462 31.6886 8.34919 31.4988 7.81794C31.0054 6.48968 31.0054 6.30001 29.9808 5.31332C30.1705 5.38913 30.3603 5.50299 30.55 5.61685C31.3849 6.18615 32.9408 8.653 33.3203 9.79131C33.6618 10.8918 33.6618 10.8918 33.0925 11.8408C32.2576 13.131 31.6883 14.2696 29.7529 13.3587C27.7036 12.372 28.0451 11.2334 28.7663 11.575C28.8803 11.6508 29.5254 12.2959 30.3981 12.7136C30.9673 12.9794 31.6505 12.8655 32.0298 12.5239C30.8154 13.3209 29.6768 12.1065 28.8041 11.3853L29.5251 11.2715C30.0944 11.3095 31.4986 12.2201 30.9671 12.334C30.5875 12.4098 30.0563 11.9543 29.8285 11.7647L29.2212 11.4231L30.1319 12.2201C30.9287 12.9033 32.9022 12.334 32.1812 11.4611C32.1431 11.4231 32.1431 11.3853 32.1431 11.3853C32.1812 11.4611 32.2948 11.6511 32.1431 11.8027C31.6119 12.334 31.1185 11.8027 30.777 11.537C29.6765 10.6641 28.424 11.4989 29.3729 10.9677L30.3975 10.4742C30.5114 10.4742 30.0938 10.3223 29.1831 10.7777C28.0445 11.3851 27.5514 10.9674 26.7923 10.7777C25.8816 10.588 25.1606 9.75298 25.3882 10.0565C25.8435 10.8155 27.2858 11.0432 26.9821 11.1951L25.0845 10.7397C24.0218 10.3223 23.4147 9.14564 23.4906 9.37336L23.832 10.0185C22.4659 9.48722 22.1242 9.14564 21.3273 7.93124C21.0237 7.4758 21.6688 8.84211 22.3901 9.48722L23.4147 10.5119C23.6803 10.8535 23.984 11.0054 23.4147 10.8916C22.3901 10.6639 21.8966 10.0946 20.9481 9.29754C20.9481 9.29754 21.4415 11.0812 23.2252 11.5747C23.2252 11.5747 24.0601 11.8783 24.9709 12.5614C25.8816 13.2065 26.4889 13.3204 26.4889 13.3204C26.4889 13.3204 27.6653 14.0413 27.8931 15.3698C28.1587 16.7361 29.3351 19.81 29.3351 19.81L29.7146 22.5046C29.7904 22.8462 30.17 24.2883 29.7527 24.5541C29.6387 24.6299 29.487 24.9337 29.601 25.2372C29.6768 25.4269 29.601 25.5408 29.6768 25.6169C29.8666 25.7688 29.9805 25.1234 30.0183 25.0095C30.3978 24.706 30.2839 24.4402 30.2839 23.9848C30.2839 22.7704 30.8532 23.15 30.8912 23.4535L30.7015 24.6299C30.5498 25.1234 29.7527 25.5785 30.2461 25.5785C30.8912 25.5405 31.2327 23.9087 31.4983 23.3013C31.688 22.884 31.802 23.3013 31.3844 24.4019L31.1946 26.641L31.688 24.5158C31.8778 23.7187 32.1056 23.6429 32.2954 23.1875C32.561 22.5424 31.6122 22.884 31.119 22.7701L30.0944 22.0111C29.9805 21.8215 30.0185 21.5557 30.0944 21.5177C30.36 21.4038 30.9673 22.7321 30.8534 22.0111L30.36 21.0245L30.5878 21.0625C31.7264 22.0872 31.9161 21.6318 32.4474 21.556C32.6752 21.5179 32.9408 21.6698 33.2064 21.2524C33.6998 20.4554 32.713 21.2144 32.1437 21.3283C31.4227 21.4802 30.1325 20.759 29.9805 20C29.7149 18.7098 31.3466 19.962 32.4474 20.1519C33.3581 20.3038 33.8135 19.6207 33.6618 19.6965C33.0166 20 32.9408 20.3038 31.6505 19.6584C29.1459 18.5198 31.4608 19.1272 32.144 19.1272C32.6374 19.1652 33.3962 18.9375 33.4342 18.5959C33.4723 18.5201 33.2445 19.0514 32.3715 18.9755L32.5613 18.8617C33.0925 18.672 32.9789 18.1408 33.3203 18.1408C33.624 18.1788 33.6618 18.5204 33.6618 18.5204C33.6998 18.6343 33.7757 18.4823 33.8135 18.2927C33.8515 18.2927 33.8515 18.3307 33.8893 18.3685C33.9652 18.4823 34.041 18.6343 34.1171 18.862V18.9378C34.0791 19.2794 34.1171 19.659 34.0791 19.9245C34.0032 20.7973 33.1303 21.8601 32.6749 22.5429C32.1437 23.3019 32.4851 23.4158 32.3712 24.1747C32.3332 24.4405 32.2954 24.9337 32.1815 25.541C31.688 27.8182 30.6634 29.2603 29.4112 31.1198C28.9558 31.841 28.6144 32.4481 28.3485 33.2451C28.1587 33.8525 28.5382 32.9794 28.5382 32.9416C29.2214 31.4237 30.3219 30.247 31.1568 28.8429C31.9159 27.5147 32.4471 25.9968 32.561 24.4408C32.5991 24.8962 32.7127 25.3516 32.7888 25.8071C32.9405 26.6041 32.7888 26.7938 32.561 27.5908C32.1437 28.8432 31.6122 29.4883 30.8154 30.475C30.0563 31.4617 29.2973 32.5622 28.6902 33.625C28.5763 33.8147 28.159 34.6117 28.2348 34.4978C28.6902 33.6631 29.2214 32.9419 29.7529 32.1829C30.0566 31.8033 30.3222 31.5756 30.5498 31.234C31.7642 29.6022 32.561 29.2984 32.9027 26.8318C33.0166 28.1981 33.0544 27.6288 32.5991 28.8052C32.3335 29.4125 32.0298 30.2093 31.6125 30.7408C31.119 31.3859 30.6259 31.8413 30.1705 32.5245C30.0947 32.6764 29.2598 34.0805 29.2598 34.1185C29.2598 34.1185 30.3225 32.5625 30.5123 32.3348C30.9676 31.7275 30.7779 32.7144 31.0057 32.2209C31.0815 32.1071 31.1196 31.9552 31.2335 31.7275C31.7269 30.8546 32.6755 29.6022 32.9414 28.7294C32.9033 29.2987 32.9414 29.6022 32.7897 30.1334C32.7138 30.3992 32.5999 30.5508 32.5618 30.7408C32.4101 31.2343 32.6377 31.6136 32.6377 32.031C32.5996 32.6383 33.207 32.5622 32.5996 33.4351C32.4857 33.6247 32.5616 34.1563 32.2201 34.3079L32.2582 35.7881C32.9033 35.2946 33.5484 34.7256 34.1558 34.1563C37.7609 30.5131 40 25.5413 40 20.0006C40 18.9381 39.9242 17.9133 39.7722 16.8886C39.089 12.6003 37.0777 8.80518 34.1555 5.8829C31.4988 3.22637 28.1215 1.32882 24.3644 0.493762H24.3263C22.9596 0.189672 21.4796 0 19.9996 0C18.2159 0 16.5083 0.265764 14.8763 0.683153H14.8383C11.3848 1.59402 8.31084 3.41549 5.88202 5.88234C3.11202 8.61495 1.17635 12.1443 0.379521 16.091V16.1291C0.151696 17.3815 0 18.6717 0 20C0 25.5408 2.23906 30.5125 5.8823 34.1557C9.48746 37.7612 14.4968 40 19.9996 40C20.3791 40 20.7964 40 21.1759 39.962C24.0982 39.2788 26.7165 36.091 27.1721 33.4723C27.4758 31.7266 27.8173 31.8783 28.728 30.588C29.1456 29.9429 29.1456 29.6391 29.3731 28.994C29.6768 28.2728 30.3978 28.197 30.5117 27.6658C30.6634 26.9068 30.6634 26.1856 30.8912 25.4266C30.9671 25.047 30.7773 25.6163 30.7395 25.6543C30.7015 25.8062 30.5498 25.9579 30.4739 26.1478C29.9427 27.7418 29.5251 26.9826 29.1456 27.1345C29.0317 27.2103 28.9558 27.2864 28.88 27.3622C28.0451 29.6014 26.2614 33.662 22.5804 34.7247C21.5938 35.0283 20.4172 35.256 19.3925 34.9524C14.3073 33.5103 12.6375 29.3736 11.7265 24.1745C11.5368 22.9981 11.1572 22.5804 11.1572 22.5804C10.1707 21.7834 10.4363 21.1764 10.4363 21.1764L12.1819 15.7495C13.1307 12.9791 15.1419 12.6375 15.1419 12.6375C19.5061 11.4989 20.5689 9.07011 20.5689 9.07011C20.0754 9.56359 19.6201 9.94293 19.1647 10.2087C19.4684 9.90516 19.7718 9.60135 20.0376 9.26006C20.2655 8.99429 20.3413 8.88043 20.2274 8.95653C20.1516 9.03234 19.8859 9.33615 19.6581 9.52582C18.9749 10.0571 18.3679 10.0193 17.6088 10.209C17.5708 10.209 15.4837 10.8163 16.4703 10.2848C17.1535 9.90517 17.6847 9.67745 18.4437 9.37392C19.2786 9.10815 19.6581 8.76658 20.1893 8.0837C20.6069 7.55245 19.7718 8.38723 19.734 8.38723C19.1269 9.03234 18.9371 8.91848 18.14 9.1462C17.8744 9.22201 17.533 9.37392 17.1535 9.44973C16.812 9.52554 16.3944 9.60163 15.9771 9.67745C15.1422 9.82935 14.4971 10.019 13.6622 9.98098C12.979 9.98098 12.2202 9.86712 11.5748 9.90516C11.3092 9.94321 11.1953 10.019 11.1953 10.019C11.2334 10.019 11.3851 9.98098 11.5748 9.98098C12.1819 9.94293 13.1307 10.2087 13.8139 10.2845C13.9656 10.3226 15.0664 10.3984 15.1422 10.4364C15.2939 10.5883 13.738 10.7022 13.738 10.7022C13.2068 10.7402 14.0795 10.9679 14.2693 11.2334C14.459 11.537 13.8139 11.4992 13.6619 11.4992C12.1438 11.4992 11.6885 11.3095 10.2465 12.0685C9.60138 12.4101 9.52553 12.2582 8.8804 12.1823C8.7287 12.1823 8.27333 12.1823 8.69064 12.3342C10.2087 12.8655 8.95625 12.5239 8.12136 12.6758C7.62792 12.7516 6.75525 13.0932 7.85575 12.4101C8.8804 11.8027 11.0055 10.9299 12.1822 10.816C12.2202 10.816 13.3585 10.778 13.1688 10.5503C13.0929 10.4745 12.258 10.4364 12.106 10.4745C11.5748 10.5125 9.18379 11.537 8.57673 11.8785C8.38697 11.9924 8.23527 12.1062 8.08329 12.1821C7.36232 12.6375 8.3489 11.5747 7.55207 12.1821C7.47623 12.2579 6.86888 12.7133 7.17255 12.2201C7.43816 11.7266 7.77962 11.6128 8.23527 11.3853C8.34918 11.3095 9.14601 10.816 9.18407 10.816C9.18407 10.816 8.57701 11.1196 8.31112 11.1957C7.85575 11.3095 7.32453 11.3095 6.86916 11.4234C5.46499 11.7269 6.11012 11.3095 6.94501 10.9679C7.02086 10.9299 8.04551 10.6264 7.96966 10.5506C7.66599 10.3986 6.64134 10.6644 6.64134 10.2848C6.64134 10.019 7.40038 9.94321 7.59014 9.94321C8.57673 9.94321 8.31112 10.778 9.71529 10.3606C10.1329 10.2467 10.5121 10.0571 10.8916 9.82935C11.0055 9.75354 10.3604 10.0951 10.1707 10.0951C9.75307 10.209 8.84233 10.0571 8.57673 9.63968C8.50088 9.48777 8.50088 9.37392 8.61479 9.33615C8.7287 9.2981 8.91846 9.41196 9.18407 9.48806C10.4743 9.79159 13.0929 8.65328 14.3073 8.04593C15.4078 7.47664 13.0548 8.50137 13.0171 8.50137C12.2202 8.8049 10.2846 9.18452 9.4119 8.99485C9.18407 8.95681 8.34918 8.69132 8.34918 8.38751C8.38725 7.93208 9.90505 8.34947 10.0948 8.38751C11.499 8.61523 11.8027 8.38751 13.0548 8.12175C14.459 7.81822 12.0683 8.12175 11.9544 8.12175C11.1953 8.19756 10.5502 8.15979 9.8292 8.00789C9.22214 7.89403 9.10822 7.85598 8.46309 7.89403C7.66627 7.96984 8.08357 7.24892 8.50116 7.28669C8.95653 7.28669 9.56387 7.9318 9.98118 7.66631C10.057 7.62827 8.69092 7.17283 8.80483 6.71768C8.91874 6.33805 9.56387 6.30029 9.86755 6.30029C10.5885 6.41414 10.8163 6.98344 11.4615 7.32502C12.4103 7.8185 13.9281 7.36306 14.801 6.90763C14.915 6.86958 15.674 6.528 15.522 6.56605C15.2564 6.6041 13.9281 7.13534 13.8522 7.0973C13.8142 7.05925 13.9281 7.02149 14.1178 6.90763C15.1044 6.30029 15.3323 5.84513 16.5467 5.50355C16.9643 5.38969 17.7611 5.12393 16.6984 5.35165C15.7876 5.54132 15.3323 5.76904 14.5351 6.30029C14.0798 6.56605 13.8142 6.64186 13.3207 6.75572C13.2068 6.75572 12.1822 6.98344 12.5239 6.56605C12.7517 6.30029 14.042 5.92094 14.4215 5.73099C15.0666 5.42746 13.1313 6.03452 12.9415 6.07257C12.6759 6.11061 10.0573 6.30029 11.1959 5.61713C11.2339 5.57909 11.9927 5.19974 11.8791 5.19974C11.3478 5.08588 10.1334 5.99675 10.7405 5.1617C11.082 4.74431 11.4237 4.36468 12.0308 4.36468C12.7517 4.36468 12.6381 4.40273 13.2071 3.98506C14.4974 3.07419 15.4462 2.84647 16.9262 2.69485C17.4574 2.6568 18.5201 2.6568 19.0136 2.77066C19.355 2.84647 19.4689 3.03642 19.8865 3.15028C20.341 3.22582 20.6069 3.45353 20.5308 2.80843ZM33.6237 12.2201C33.6237 12.4859 33.3581 12.7136 33.2064 12.9033C32.6752 13.5484 31.1952 15.0285 29.032 14.1557C28.5007 13.928 28.1971 13.2068 28.8803 13.5864L30.2464 13.928C33.2061 14.1935 33.5476 10.5125 33.6237 12.2201ZM33.8135 12.8274C33.0544 13.7761 34.4586 12.9794 33.5856 14.0419C31.2327 16.9261 29.9046 15.2943 29.9805 15.2563C30.0563 15.2563 32.1815 15.5978 33.0544 14.3073L33.1683 14.0796C33.0166 14.2693 32.8647 14.4212 32.5991 14.5731C31.5744 15.1804 30.5498 15.3701 29.4493 14.9147C29.1456 14.7628 28.88 14.5351 29.0697 14.4592C29.3353 14.3454 30.36 15.1424 31.8781 14.4592C32.6371 14.0796 32.8269 13.6245 33.32 13.0171C33.7373 12.4859 34.0032 12.5617 33.8135 12.8274ZM34.041 18.2544C33.9652 18.1785 33.9271 18.1405 33.8513 18.1024C33.8513 17.9505 33.8132 17.7989 33.7373 17.7228C33.3959 17.4193 32.8644 18.1402 32.3332 18.406C31.9537 18.5956 29.6387 19.1272 29.7527 18.0264C29.8285 17.1155 30.2461 17.8744 31.3466 17.9883C32.7127 18.1402 32.9405 18.1402 33.5098 17.2293H33.4717C32.6749 17.8744 31.2707 17.7606 30.3597 17.4571C29.8285 17.2674 29.2212 16.7361 29.3351 16.3185C29.449 15.863 30.5114 16.6981 31.65 16.6981C33.4337 16.7361 33.3956 15.3698 33.3198 15.5975C33.13 16.091 33.0919 16.4323 32.1434 16.5084C30.1322 16.7361 29.1075 15.4079 29.1075 15.4079C29.2592 15.3321 30.3597 16.3565 31.7261 16.2049C32.9783 16.091 32.9405 15.1043 33.7373 14.1554C34.7242 12.9413 34.4205 18.8995 34.041 18.2544ZM19.9237 32.4478C21.3279 32.5236 21.7074 31.9924 22.3526 30.6641C20.9106 31.1196 19.8859 30.778 19.8859 30.778C20.8348 29.7533 20.9106 29.6774 22.3526 29.9432C23.0735 30.0951 23.2255 30.1329 23.7567 29.412C23.0735 29.7535 22.5423 29.3739 21.8972 29.2601C21.5557 29.222 20.6069 29.412 20.6069 29.1462C20.6069 28.9943 20.7586 28.6908 21.3279 28.5769C22.3145 28.3492 22.7321 25.7685 21.4038 25.9204C19.1266 26.1861 19.5442 25.5788 19.6201 23.7951L19.582 19.3168C19.582 17.8747 16.1666 17.0397 14.8002 17.3054C13.5477 17.5332 12.3333 18.0644 12.0677 19.4307C12.0296 20.6451 12.2575 21.2144 13.3202 20.1139C13.3202 20.1139 14.0412 19.1272 15.2936 19.0891C15.9007 19.0891 16.4322 19.1649 17.0393 19.3549V19.3929C15.5592 19.0133 14.4965 19.3929 13.396 20.4177C15.7868 21.3666 16.8873 20.6073 17.6463 20.4177C17.077 21.2524 14.838 21.2905 14.0031 21.1766L13.965 21.3285C13.965 21.3285 15.2175 22.3152 17.077 21.4044C17.6463 21.4044 18.6329 21.2524 18.7849 22.1256C18.823 22.3533 18.8607 22.8087 18.823 23.4158C18.5951 25.1614 19.0508 24.0231 19.0886 24.4025C19.3164 25.9584 18.2917 25.9204 17.7602 25.6927C16.9253 25.3511 18.9746 29.981 15.8626 28.9185C15.9765 30.3226 17.798 30.5883 17.3427 30.9299C17.8744 32.2962 18.5576 32.372 19.9237 32.4478ZM19.2405 7.59022C19.2025 7.59022 18.8991 7.62827 18.5954 7.62827C18.2917 7.59022 17.9883 7.55245 17.7225 7.59022C17.0393 7.62827 16.3183 8.15951 15.7112 8.38723C14.9522 8.69076 14.1173 8.88071 13.3963 9.18424C13.0926 9.33615 14.5349 9.03234 14.7624 8.99457C16.0149 8.653 16.8117 7.74213 18.102 7.70436C18.3298 7.66631 18.6332 7.70436 18.861 7.66631C19.0888 7.62799 19.3164 7.59022 19.2405 7.59022ZM21.6694 7.3625C22.4284 7.28669 24.3638 8.72881 24.7433 9.37392C24.8192 9.52582 24.7814 9.60163 24.7052 9.56359C24.6294 9.52554 24.5536 9.37392 24.3638 9.18396C23.8704 8.69048 22.9216 7.8557 22.2386 7.58994C22.0869 7.51441 21.4796 7.3625 21.6694 7.3625ZM20.1513 6.75516C20.0374 6.79321 19.8476 6.90707 19.5442 6.94483C18.9369 7.02065 17.9883 6.90679 17.3432 6.90679C16.4325 6.90679 15.5217 7.21032 14.6488 7.40027C13.5102 7.58994 14.1934 7.47608 14.7246 7.43832C15.901 7.32446 17.0776 7.05869 18.292 7.05869C18.7474 7.05869 19.9237 7.2106 20.2274 6.83097C20.2652 6.75516 20.2274 6.7174 20.1513 6.75516ZM20.8345 4.55408C21.1759 4.89565 21.2898 5.31304 21.8211 5.38885C22.3903 5.50271 23.1872 5.23695 23.8323 5.19918C24.5533 5.19918 25.2745 5.275 25.9574 5.57881C27.4375 6.1481 26.4887 5.84457 25.7296 5.61685C25.0086 5.42718 24.1738 5.31332 23.4147 5.38913C22.5798 5.50299 21.8208 5.88262 21.0617 5.35109C20.6828 5.12337 20.6828 4.40217 20.8345 4.55408ZM20.8725 26.3378C20.4172 26.2997 20.1516 26.3758 19.6581 26.2239C18.7852 25.9962 17.8366 26.4516 18.4056 26.7932C18.4437 26.8313 18.5196 26.8313 18.5573 26.8313C19.0508 26.9451 18.5573 26.8693 18.5193 26.7174C18.4054 26.3758 19.3161 26.4516 19.5059 26.5655C19.5439 26.6035 19.5817 26.7174 19.6576 26.7552C19.7715 26.869 20.2268 26.9829 20.5683 26.831C21.0617 26.5652 21.8966 26.7171 21.0237 27.0587C20.7581 27.1726 22.1242 26.9829 21.6688 26.5652C21.5177 26.4139 21.1001 26.3758 20.8725 26.3378ZM14.459 20.4177L14.2312 20.3038C15.0661 19.5826 16.3563 19.1652 17.1912 20.1141C16.8117 20.8728 15.1042 20.7212 14.459 20.4177ZM25.806 20.4177L25.9958 20.3038C25.199 19.5448 23.8706 19.2033 23.0357 20.1141C23.4911 20.8728 25.1228 20.759 25.806 20.4177ZM22.6182 20.4177C23.1874 21.2524 25.4265 21.2905 26.2233 21.1766L26.2992 21.3285C26.2992 21.3285 25.0089 22.3152 23.1872 21.4044C23.0355 21.4044 21.8969 21.4044 21.5932 21.1766C20.6825 20.4177 21.5552 18.2166 22.3142 17.7989C24.0598 16.8122 27.7031 17.0777 28.1584 19.4307C28.1965 19.6584 28.1204 20.4554 28.0445 20.6071C27.7789 20.9867 27.0957 20.2655 26.944 20.1136C26.944 20.1136 26.185 19.1269 24.9706 19.0888C24.3254 19.0888 23.7184 19.1647 23.111 19.4304C24.6291 18.975 25.7296 19.3546 26.8301 20.4171C24.4396 21.3663 23.3772 20.6073 22.6182 20.4177ZM6.86888 21.6321C6.60327 21.5563 5.99593 21.2905 5.92008 20.987C5.84423 20.6454 6.18569 20.8731 6.33766 20.9489C7.28647 21.3663 7.81768 21.1766 8.72842 20.6832C10.0945 20 8.76649 21.2144 8.42475 21.4044C7.96938 21.7079 7.4001 21.8217 6.86888 21.6321ZM6.94473 20.8728C6.56521 20.8348 5.76838 20.6071 5.61641 20.1897C5.42665 19.5823 6.14762 19.6584 6.52714 19.6584C6.79275 19.6584 8.31084 19.241 8.57645 19.1272C9.4494 18.7476 9.90477 18.1405 9.29742 19.6965C9.18351 20 9.03182 20.2658 8.76621 20.4554C8.46281 20.6832 7.36231 20.9489 6.94473 20.8728ZM7.02086 17.2296C6.8311 17.1916 5.99621 16.85 6.07206 16.5465C6.11012 16.2807 6.86888 16.5084 7.09671 16.5084C7.43816 16.5084 7.89353 16.3946 8.31112 16.3565C8.69064 16.3185 9.07016 16.3185 9.44968 16.2427C9.8292 16.1668 10.2846 15.9769 10.4743 15.9391C10.6641 15.9011 10.6641 15.9772 10.5502 16.1288C9.9809 17.0019 8.00744 17.4573 7.02086 17.2296ZM7.05864 16.1291C6.41351 16.1671 6.64106 16.1671 6.48936 16.091C6.33766 16.0152 5.80617 15.5217 6.22375 15.5217C6.37545 15.5217 6.75497 15.5975 7.32425 15.5975C7.93132 15.5975 8.76621 15.5217 9.37355 15.4456C9.41162 15.4076 11.347 15.0283 10.626 15.5595C9.71529 16.2049 7.74184 16.091 7.05864 16.1291Z" fill="#C026D3"/>
</svg>
